<svg xmlns="http://www.w3.org/2000/svg" width="41" height="42" viewBox="0 0 41 42">
    <g fill="#23A5B9" fill-rule="evenodd" stroke="#FFF" stroke-width=".889">
        <path d="M20.55 10.552c-1.887 0-3.423 1.574-3.423 3.508 0 .646.51 1.17 1.141 1.17.63 0 1.141-.524 1.141-1.17 0-.644.512-1.17 1.141-1.17.63 0 1.141.526 1.141 1.17v.402a3.53 3.53 0 0 1-1.002 2.481l-3.228 3.308a1.19 1.19 0 0 0-.247 1.275c.177.436.593.722 1.054.722h4.564c.63 0 1.141-.524 1.141-1.17 0-.646-.51-1.17-1.14-1.17h-1.81l1.28-1.311a5.883 5.883 0 0 0 1.67-4.135v-.402c0-1.934-1.535-3.508-3.423-3.508zM31.96 10.552c-.63 0-1.14.523-1.14 1.17v3.508h-2.282v-3.509c0-.646-.511-1.17-1.141-1.17s-1.141.524-1.141 1.17V16.4c0 .646.51 1.17 1.14 1.17h3.424v3.508c0 .646.51 1.17 1.14 1.17.631 0 1.142-.524 1.142-1.17v-9.357c0-.646-.51-1.17-1.141-1.17z"/>
        <path fill-rule="nonzero" d="M25.114 1.039c-5.249 0-9.953 2.921-12.598 7.2L11.8 6.588a1.133 1.133 0 0 0-1.333-.656l-6.7 1.808c-2.131.557-3.144 2.84-2.498 4.986 1.495 4.977 3.878 10.95 10.208 17.527l.005.006.036.037.006.005c7.246 7.328 13.705 9.368 17.175 10.464 2.095.66 4.32-.376 4.864-2.56l1.782-6.846a1.178 1.178 0 0 0-.638-1.37l-1.64-.749a15.307 15.307 0 0 0 6.957-12.84c0-8.4-6.704-15.36-14.91-15.36zm6.242 36.569l-.003.015c-.218.88-1.146 1.17-1.982.905-3.283-1.037-9.394-2.966-16.242-9.89l-.03-.032c-6.79-7.055-8.721-13.48-9.65-16.57-.257-.857.025-1.808.884-2.03l.01-.003 5.766-1.557 3.142 7.255c-.845.858-2.39 2.43-2.854 2.933a1.193 1.193 0 0 0-.125 1.446c1.312 2.043 3.042 4.15 5.143 6.262 1.94 2.026 3.995 3.774 6.11 5.194.433.29 1.001.246 1.387-.107.514-.472 2.05-2.069 2.888-2.945l7.09 3.235-1.534 5.889zm-.902-9.56l-4.451-2.032a1.121 1.121 0 0 0-1.282.253c-.56.588-1.856 1.944-2.694 2.79a36.353 36.353 0 0 1-5.007-4.38c-1.72-1.729-3.171-3.444-4.324-5.11a495.08 495.08 0 0 1 2.72-2.772c.337-.341.433-.862.24-1.307l-1.978-4.568c2.082-4.532 6.618-7.544 11.436-7.544 6.963 0 12.628 5.842 12.628 13.022 0 4.993-2.845 9.512-7.288 11.647z"/>
    </g>
</svg>
