<svg xmlns="http://www.w3.org/2000/svg" width="40" height="40" viewBox="0 0 40 40">
    <g fill="#23A5B9" fill-rule="evenodd">
        <path fill-rule="nonzero" d="M39.99 15.291a.63.63 0 0 0-.027-.135.667.667 0 0 0-.038-.115.598.598 0 0 0-.067-.102.629.629 0 0 0-.089-.103c-.01-.01-.015-.022-.026-.032L33.33 9.825v-5.16a2 2 0 0 0-2-2h-7.224L21.214.417a1.977 1.977 0 0 0-2.431 0l-2.894 2.246H8.665a2 2 0 0 0-2 2v5.161l-6.41 4.98c-.011.009-.016.021-.026.03a.625.625 0 0 0-.089.104.595.595 0 0 0-.067.102.658.658 0 0 0-.038.115.632.632 0 0 0-.027.133c0 .014-.008.026-.008.04v22.669c.001.424.138.836.391 1.176.004.006.005.014.01.019.004.005.014.011.021.019a1.99 1.99 0 0 0 1.576.786h36a1.99 1.99 0 0 0 1.581-.79c.006-.006.014-.008.018-.015.005-.007.006-.013.01-.019.253-.34.39-.752.391-1.176V15.33c0-.014-.007-.026-.008-.04zM19.598 1.471a.64.64 0 0 1 .795 0l1.538 1.193h-3.866l1.533-1.194zM2.166 38.663l17.432-13.54a.64.64 0 0 1 .795 0l17.437 13.54H2.166zm36.499-1.039L21.214 24.072a1.978 1.978 0 0 0-2.431 0L1.33 37.625V16.346l10.925 8.484a.667.667 0 1 0 .817-1.054L1.975 15.158l4.69-3.645v5.151a.667.667 0 0 0 1.333 0v-12c0-.368.298-.666.667-.666H31.33c.368 0 .667.298.667.666v12a.667.667 0 1 0 1.333 0v-5.151l4.69 3.645-11.118 8.633a.667.667 0 1 0 .818 1.053l10.944-8.498v21.279z"/>
        <path d="M27.998 15.998V13.33a8 8 0 1 0-8 8 .667.667 0 1 0 0-1.333 6.667 6.667 0 1 1 6.667-6.667v2.667a1.333 1.333 0 1 1-2.667 0V13.33a.667.667 0 1 0-1.333 0 2.667 2.667 0 1 1-2.667-2.667.667.667 0 1 0 0-1.333 4 4 0 1 0 2.695 6.948 2.66 2.66 0 0 0 5.305-.281z"/>
    </g>
</svg>
