<svg xmlns="http://www.w3.org/2000/svg" width="57" height="56" viewBox="0 0 57 56">
    <g fill="none" fill-rule="evenodd">
        <path fill="#FFF" d="M14.072 7.391c-.067-.29-.027-.505.134-.72.086-.113.247-.323.783-.298 1.54.076 3.97 1.783 6.219 3.97l-1.11 2.24c-3.291-1.72-5.704-3.794-6.026-5.192zm11.44 8.206l.341-.208c-.202-.334-.427-.676-.669-1.023.207-.173.434-.325.691-.432.33-.136.678-.204 1.025-.204.348 0 .697.069 1.03.206.661.275 1.177.791 1.45 1.454.274.662.274 1.392 0 2.054-.276.662-.792 1.178-1.455 1.452-.662.273-1.392.273-2.054-.002-.662-.275-1.178-.791-1.452-1.454-.273-.662-.273-1.392.002-2.054.115-.277.28-.52.472-.739.223.322.43.64.618.95zm15.564-1.648c-.293-.71-.878-1.257-1.604-1.504L25.147 7.588c-1.256-.426-2.648.15-3.238 1.338l-.521 1.053c-2.3-2.208-4.787-3.927-6.38-4.006-.658-.028-.947.228-1.122.458-.233.31-.298.644-.204 1.05.347 1.506 2.845 3.686 6.238 5.46l-1.387 2.8c-.352.116-.677.325-.932.623l-7.586 8.842c-.394.46-.57 1.065-.484 1.662l3.278 22.78c.08.553.37 1.043.818 1.378.366.274.802.419 1.251.419.1 0 .202-.008.303-.022l10.375-1.493.975 2.36c.272.657.782 1.168 1.439 1.44.329.137.674.205 1.02.205.344 0 .688-.068 1.016-.203l21.041-8.696c.656-.271 1.168-.783 1.44-1.438.273-.657.273-1.38.002-2.036L41.076 13.949z" transform="translate(1 1)"/>
        <path stroke="#FFF" stroke-linecap="round" stroke-linejoin="round" stroke-width="1.6" d="M14.072 7.391c-.067-.29-.027-.505.134-.72.086-.113.247-.323.783-.298 1.54.076 3.97 1.783 6.219 3.97l-1.11 2.24c-3.291-1.72-5.704-3.794-6.026-5.192zm11.44 8.206l.341-.208c-.202-.334-.427-.676-.669-1.023.207-.173.434-.325.691-.432.33-.136.678-.204 1.025-.204.348 0 .697.069 1.03.206.661.275 1.177.791 1.45 1.454.274.662.274 1.392 0 2.054-.276.662-.792 1.178-1.455 1.452-.662.273-1.392.273-2.054-.002-.662-.275-1.178-.791-1.452-1.454-.273-.662-.273-1.392.002-2.054.115-.277.28-.52.472-.739.223.322.43.64.618.95zm15.564-1.648c-.293-.71-.878-1.257-1.604-1.504L25.147 7.588c-1.256-.426-2.648.15-3.238 1.338l-.521 1.053c-2.3-2.208-4.787-3.927-6.38-4.006-.658-.028-.947.228-1.122.458-.233.31-.298.644-.204 1.05.347 1.506 2.845 3.686 6.238 5.46l-1.387 2.8c-.352.116-.677.325-.932.623l-7.586 8.842c-.394.46-.57 1.065-.484 1.662l3.278 22.78c.08.553.37 1.043.818 1.378.366.274.802.419 1.251.419.1 0 .202-.008.303-.022l10.375-1.493.975 2.36c.272.657.782 1.168 1.439 1.44.329.137.674.205 1.02.205.344 0 .688-.068 1.016-.203l21.041-8.696c.656-.271 1.168-.783 1.44-1.438.273-.657.273-1.38.002-2.036L41.076 13.949z" transform="translate(1 1)"/>
        <path fill="#FFF" d="M10.198 44.726l-3.846 3.846c-.078.079-.078.205 0 .283.04.04.09.059.142.059.05 0 .102-.02.141-.059l3.846-3.846c.078-.078.078-.205 0-.283-.078-.078-.205-.078-.283 0" transform="translate(1 1)"/>
        <path stroke="#FFF" stroke-linecap="round" stroke-linejoin="round" stroke-width="1.6" d="M10.198 44.726l-3.846 3.846c-.078.079-.078.205 0 .283.04.04.09.059.142.059.05 0 .102-.02.141-.059l3.846-3.846c.078-.078.078-.205 0-.283-.078-.078-.205-.078-.283 0z" transform="translate(1 1)"/>
        <path fill="#FFF" d="M7.901 37.97c-.044-.102-.163-.148-.263-.104l-4.021 1.748c-.101.044-.148.162-.104.264.033.075.107.12.183.12.027 0 .054-.006.08-.017l4.021-1.748c.101-.044.148-.162.104-.263" transform="translate(1 1)"/>
        <path stroke="#FFF" stroke-linecap="round" stroke-linejoin="round" stroke-width="1.6" d="M7.901 37.97c-.044-.102-.163-.148-.263-.104l-4.021 1.748c-.101.044-.148.162-.104.264.033.075.107.12.183.12.027 0 .054-.006.08-.017l4.021-1.748c.101-.044.148-.162.104-.263z" transform="translate(1 1)"/>
        <path fill="#FFF" d="M7.043 30.357c0-.11-.09-.2-.2-.2H.2c-.11 0-.2.09-.2.2 0 .11.09.2.2.2h6.643c.11 0 .2-.09.2-.2" transform="translate(1 1)"/>
        <path stroke="#FFF" stroke-linecap="round" stroke-linejoin="round" stroke-width="1.6" d="M7.043 30.357c0-.11-.09-.2-.2-.2H.2c-.11 0-.2.09-.2.2 0 .11.09.2.2.2h6.643c.11 0 .2-.09.2-.2z" transform="translate(1 1)"/>
        <path fill="#FFF" d="M5.193 22.15l4.196 1.748c.025.01.05.016.077.016.078 0 .152-.047.185-.123.042-.102-.006-.22-.108-.262L5.347 21.78c-.1-.043-.22.005-.262.107-.042.102.006.22.108.262" transform="translate(1 1)"/>
        <path stroke="#FFF" stroke-linecap="round" stroke-linejoin="round" stroke-width="1.6" d="M5.193 22.15l4.196 1.748c.025.01.05.016.077.016.078 0 .152-.047.185-.123.042-.102-.006-.22-.108-.262L5.347 21.78c-.1-.043-.22.005-.262.107-.042.102.006.22.108.262z" transform="translate(1 1)"/>
        <path fill="#FFF" d="M13.17 17.736c.04.04.09.059.142.059.05 0 .102-.02.141-.059.078-.078.078-.204 0-.282l-3.846-3.847c-.078-.078-.205-.078-.283 0-.078.078-.078.205 0 .283l3.846 3.846z" transform="translate(1 1)"/>
        <path stroke="#FFF" stroke-linecap="round" stroke-linejoin="round" stroke-width="1.6" d="M13.17 17.736c.04.04.09.059.142.059.05 0 .102-.02.141-.059.078-.078.078-.204 0-.282l-3.846-3.847c-.078-.078-.205-.078-.283 0-.078.078-.078.205 0 .283l3.846 3.846z" transform="translate(1 1)"/>
        <path fill="#FFF" d="M22.744 5.961c.033.076.107.12.183.12.027 0 .054-.005.08-.016.101-.044.148-.162.104-.263l-1.748-4.021c-.044-.102-.164-.148-.264-.104s-.147.162-.104.263l1.749 4.021z" transform="translate(1 1)"/>
        <path stroke="#FFF" stroke-linecap="round" stroke-linejoin="round" stroke-width="1.6" d="M22.744 5.961c.033.076.107.12.183.12.027 0 .054-.005.08-.016.101-.044.148-.162.104-.263l-1.748-4.021c-.044-.102-.164-.148-.264-.104s-.147.162-.104.263l1.749 4.021z" transform="translate(1 1)"/>
        <path fill="#FFF" d="M29.134 7.043c.11 0 .2-.09.2-.2V.2c0-.111-.09-.2-.2-.2-.11 0-.2.089-.2.2v6.643c0 .11.09.2.2.2" transform="translate(1 1)"/>
        <path stroke="#FFF" stroke-linecap="round" stroke-linejoin="round" stroke-width="1.6" d="M29.134 7.043c.11 0 .2-.09.2-.2V.2c0-.111-.09-.2-.2-.2-.11 0-.2.089-.2.2v6.643c0 .11.09.2.2.2z" transform="translate(1 1)"/>
        <path fill="#FFF" d="M35.791 8.515c.024.01.049.014.073.014.08 0 .155-.048.186-.127l1.574-4.021c.04-.103-.01-.219-.113-.259-.104-.04-.22.01-.26.113l-1.573 4.021c-.04.103.01.219.113.26" transform="translate(1 1)"/>
        <path stroke="#FFF" stroke-linecap="round" stroke-linejoin="round" stroke-width="1.6" d="M35.791 8.515c.024.01.049.014.073.014.08 0 .155-.048.186-.127l1.574-4.021c.04-.103-.01-.219-.113-.259-.104-.04-.22.01-.26.113l-1.573 4.021c-.04.103.01.219.113.26z" transform="translate(1 1)"/>
        <path fill="#FFF" d="M43.557 10.102c.05 0 .102-.02.141-.058l4.02-4.02c.079-.08.079-.206 0-.284-.077-.078-.204-.078-.282 0l-4.021 4.02c-.078.08-.078.206 0 .284.04.039.09.058.142.058" transform="translate(1 1)"/>
        <path stroke="#FFF" stroke-linecap="round" stroke-linejoin="round" stroke-width="1.6" d="M43.557 10.102c.05 0 .102-.02.141-.058l4.02-4.02c.079-.08.079-.206 0-.284-.077-.078-.204-.078-.282 0l-4.021 4.02c-.078.08-.078.206 0 .284.04.039.09.058.142.058z" transform="translate(1 1)"/>
        <path fill="#FFF" d="M44.945 17.847c.032.076.107.123.185.123.026 0 .052-.005.077-.015l4.196-1.75c.102-.041.15-.158.108-.26-.043-.103-.16-.15-.262-.108l-4.196 1.748c-.102.042-.15.16-.108.262" transform="translate(1 1)"/>
        <path stroke="#FFF" stroke-linecap="round" stroke-linejoin="round" stroke-width="1.6" d="M44.945 17.847c.032.076.107.123.185.123.026 0 .052-.005.077-.015l4.196-1.75c.102-.041.15-.158.108-.26-.043-.103-.16-.15-.262-.108l-4.196 1.748c-.102.042-.15.16-.108.262z" transform="translate(1 1)"/>
        <path fill="#FFF" d="M54.57 24.213h-6.818c-.11 0-.2.09-.2.2 0 .11.09.2.2.2h6.818c.11 0 .2-.09.2-.2 0-.11-.09-.2-.2-.2" transform="translate(1 1)"/>
        <path stroke="#FFF" stroke-linecap="round" stroke-linejoin="round" stroke-width="1.6" d="M54.57 24.213h-6.818c-.11 0-.2.09-.2.2 0 .11.09.2.2.2h6.818c.11 0 .2-.09.2-.2 0-.11-.09-.2-.2-.2z" transform="translate(1 1)"/>
        <path fill="#FFF" d="M53.941 32.442l-4.195-1.573c-.103-.038-.219.013-.258.117-.039.103.013.219.117.257l4.196 1.574c.023.008.047.013.07.013.08 0 .157-.05.187-.13.04-.103-.013-.219-.117-.258" transform="translate(1 1)"/>
        <path stroke="#FFF" stroke-linecap="round" stroke-linejoin="round" stroke-width="1.6" d="M53.941 32.442l-4.195-1.573c-.103-.038-.219.013-.258.117-.039.103.013.219.117.257l4.196 1.574c.023.008.047.013.07.013.08 0 .157-.05.187-.13.04-.103-.013-.219-.117-.258z" transform="translate(1 1)"/>
        <path fill="#FFF" d="M34.115 46.582l-3.277-22.778c-.078-.542-.386-1.022-.844-1.32l-9.771-6.345c-.797-.517-1.852-.365-2.47.355l-7.586 8.843c-.356.415-.515.963-.437 1.503l3.277 22.78c.149 1.036 1.109 1.754 2.145 1.605l8.679-1.249 8.678-1.248c1.036-.15 1.755-1.11 1.606-2.146" transform="translate(1 1)"/>
        <path stroke="#02647A" stroke-linecap="round" stroke-linejoin="round" stroke-width=".5" d="M34.115 46.582l-3.277-22.778c-.078-.542-.386-1.022-.844-1.32l-9.771-6.345c-.797-.517-1.852-.365-2.47.355l-7.586 8.843c-.356.415-.515.963-.437 1.503l3.277 22.78c.149 1.036 1.109 1.754 2.145 1.605l8.679-1.249 8.678-1.248c1.036-.15 1.755-1.11 1.606-2.146z" transform="translate(1 1)"/>
        <path fill="#A3C8D0" d="M30.838 23.804c-.078-.542-.386-1.022-.844-1.32l-9.771-6.345c-.467-.303-1.02-.37-1.525-.234l-4.22 7.1c-.336.564-.412 1.245-.208 1.87l8.176 25.084 1.304-.188 8.7-1.262c1.035-.149 1.814-.89 1.665-1.927l-3.277-22.778z" transform="translate(1 1)"/>
        <path fill="#A3C8D0" d="M28.002 19.08c-1.472.61-3.159-.09-3.767-1.563-.609-1.472.091-3.158 1.563-3.766 1.472-.61 3.159.091 3.767 1.563.609 1.472-.091 3.159-1.563 3.767m24.302 22.558L40.891 14.025c-.27-.655-.811-1.162-1.483-1.39L25.083 7.778c-1.167-.395-2.447.133-2.994 1.238l-6.716 13.553c-.315.636-.34 1.376-.07 2.032l11.413 27.613c.52 1.256 1.958 1.853 3.213 1.334L40.45 49.2l10.521-4.348c1.256-.52 1.853-1.958 1.334-3.213" transform="translate(1 1)"/>
        <path stroke="#02647A" stroke-linecap="round" stroke-linejoin="round" stroke-width=".5" d="M28.002 19.08c-1.472.61-3.159-.09-3.767-1.563-.609-1.472.091-3.158 1.563-3.766 1.472-.61 3.159.091 3.767 1.563.609 1.472-.091 3.159-1.563 3.767zM52.304 41.64L40.891 14.025c-.27-.655-.811-1.162-1.483-1.39L25.083 7.778c-1.167-.395-2.447.133-2.994 1.238l-6.716 13.553c-.315.636-.34 1.376-.07 2.032l11.413 27.613c.52 1.256 1.958 1.853 3.213 1.334L40.45 49.2l10.521-4.348c1.256-.52 1.853-1.958 1.334-3.213z" transform="translate(1 1)"/>
        <path stroke="#374A63" stroke-linecap="round" stroke-linejoin="round" stroke-width=".5" d="M20.186 12.856c-3.434-1.764-5.968-3.941-6.309-5.419-.08-.349-.028-.622.169-.885.144-.19.373-.407.953-.378 2.754.137 8.268 5.326 10.683 9.32M10.34 44.868L6.493 48.714M7.717 38.05L3.697 39.798M6.843 30.357L.2 30.357M9.466 23.714L5.27 21.966M13.312 17.595L9.466 13.749M22.927 5.882L21.179 1.861M29.133.2L29.133 6.844M37.438 4.309L35.864 8.33M43.556 9.903L47.577 5.882M45.13 17.77L49.325 16.022M47.752 24.413L54.57 24.413M49.675 31.057L53.871 32.63" transform="translate(1 1)"/>
        <path stroke="#EF4050" stroke-linecap="round" stroke-linejoin="round" stroke-width=".5" d="M50.29 43.63L49.915 42.731M48.171 44.448L47.796 43.549M46.051 45.265L45.676 44.366M43.931 46.083L43.556 45.184" transform="translate(1 1)"/>
        <g>
            <path fill="#FFF" d="M0.115 22.148L2.554 0.032" transform="translate(1 1) translate(32.8 23.936)"/>
            <path stroke="#02647A" stroke-linecap="round" stroke-linejoin="round" stroke-width=".5" d="M0.115 22.148L2.554 0.032" transform="translate(1 1) translate(32.8 23.936)"/>
        </g>
        <path fill="#FFF" d="M38.795 34.769c-.859.688-.998 1.947-.31 2.806.689.859 1.948.998 2.807.31.86-.689.998-1.947.31-2.807-.689-.859-1.948-.998-2.807-.31" transform="translate(1 1)"/>
        <path stroke="#02647A" stroke-linecap="round" stroke-linejoin="round" stroke-width=".5" d="M38.795 34.769c-.859.688-.998 1.947-.31 2.806.689.859 1.948.998 2.807.31.86-.689.998-1.947.31-2.807-.689-.859-1.948-.998-2.807-.31z" transform="translate(1 1)"/>
        <path fill="#FFF" d="M27.022 31.34c-.859.69-.998 1.947-.31 2.807.69.859 1.948.998 2.807.31.86-.69.998-1.948.31-2.807-.689-.859-1.948-.998-2.807-.31" transform="translate(1 1)"/>
        <path stroke="#02647A" stroke-linecap="round" stroke-linejoin="round" stroke-width=".5" d="M27.022 31.34c-.859.69-.998 1.947-.31 2.807.69.859 1.948.998 2.807.31.86-.69.998-1.948.31-2.807-.689-.859-1.948-.998-2.807-.31z" transform="translate(1 1)"/>
        <path stroke="#374A63" stroke-linecap="round" stroke-linejoin="round" stroke-width=".5" d="M17.222 49.89l-1.44.175c-.855.108-1.636-.497-1.744-1.352l-.226-1.786M19.485 49.604L18.288 49.756" transform="translate(1 1)"/>
    </g>
</svg>
