<svg xmlns="http://www.w3.org/2000/svg" xmlns:xlink="http://www.w3.org/1999/xlink" width="34" height="54" viewBox="0 0 34 54">
    <defs>
        <path id="mj8i6abifa" d="M0 53.248L33.33 53.248 33.33 0 0 0z"/>
    </defs>
    <g fill="none" fill-rule="evenodd">
        <path fill="#FFF" d="M11.747 11.75c.057 0 .114-.025.153-.072.587-.696 1.285-1.278 2.073-1.728.096-.055.13-.177.075-.273-.055-.097-.179-.128-.273-.075-.83.474-1.563 1.086-2.18 1.818-.072.085-.06.21.024.282.037.032.083.047.128.047"/>
        <path stroke="#FFF" stroke-linejoin="round" stroke-width="1.6" d="M11.747 11.75c.057 0 .114-.025.153-.072.587-.696 1.285-1.278 2.073-1.728.096-.055.13-.177.075-.273-.055-.097-.179-.128-.273-.075-.83.474-1.563 1.086-2.18 1.818-.072.085-.06.21.024.282.037.032.083.047.128.047z"/>
        <path fill="#FFF" d="M16.098 8.778c.738-.229 1.507-.345 2.285-.345 4.238 0 7.685 3.447 7.685 7.685 0 .11.089.2.2.2.11 0 .2-.09.2-.2 0-4.458-3.627-8.085-8.085-8.085-.819 0-1.627.122-2.404.363-.105.033-.164.145-.131.25.033.106.143.166.25.132"/>
        <path stroke="#FFF" stroke-linejoin="round" stroke-width="1.6" d="M16.098 8.778c.738-.229 1.507-.345 2.285-.345 4.238 0 7.685 3.447 7.685 7.685 0 .11.089.2.2.2.11 0 .2-.09.2-.2 0-4.458-3.627-8.085-8.085-8.085-.819 0-1.627.122-2.404.363-.105.033-.164.145-.131.25.033.106.143.166.25.132z"/>
        <path fill="#FFF" d="M18.383 5.17c6.037 0 10.948 4.91 10.948 10.947 0 6.037-4.91 10.948-10.948 10.948-6.037 0-10.947-4.911-10.947-10.948 0-6.036 4.91-10.947 10.947-10.947zm1.792 24.977c6.957-.884 12.355-6.836 12.355-14.03 0-7.8-6.346-14.146-14.147-14.146-7.8 0-14.147 6.346-14.147 14.146 0 7.194 5.398 13.146 12.356 14.03v3.823c0 .006.002.011.003.017-1.094.44-1.869 1.511-1.869 2.761V49.47c0 1.641 1.336 2.977 2.978 2.977h1.358c1.642 0 2.978-1.336 2.978-2.977V36.748c0-1.25-.774-2.32-1.868-2.761 0-.006.003-.01.003-.017v-3.823z"/>
        <path stroke="#FFF" stroke-linejoin="round" stroke-width="1.6" d="M18.383 5.17c6.037 0 10.948 4.91 10.948 10.947 0 6.037-4.91 10.948-10.948 10.948-6.037 0-10.947-4.911-10.947-10.948 0-6.036 4.91-10.947 10.947-10.947zm1.792 24.977c6.957-.884 12.355-6.836 12.355-14.03 0-7.8-6.346-14.146-14.147-14.146-7.8 0-14.147 6.346-14.147 14.146 0 7.194 5.398 13.146 12.356 14.03v3.823c0 .006.002.011.003.017-1.094.44-1.869 1.511-1.869 2.761V49.47c0 1.641 1.336 2.977 2.978 2.977h1.358c1.642 0 2.978-1.336 2.978-2.977V36.748c0-1.25-.774-2.32-1.868-2.761 0-.006.003-.01.003-.017v-3.823z"/>
        <path fill="#A3C8D0" d="M16.585 49.523V36.8c0-1.51 1.22-2.745 2.723-2.775l-.054-.003h-1.359c-1.527 0-2.777 1.25-2.777 2.778v12.722c0 1.528 1.25 2.778 2.777 2.778h1.359l.054-.003c-1.502-.03-2.723-1.266-2.723-2.775M18.383 27.212c-6.157 0-11.147-4.992-11.147-11.148s4.99-11.147 11.147-11.147 11.148 4.99 11.148 11.147c0 6.156-4.99 11.148-11.148 11.148m0-25.094c-7.703 0-13.947 6.244-13.947 13.946 0 7.703 6.244 13.947 13.947 13.947 7.703 0 13.947-6.244 13.947-13.947 0-7.702-6.244-13.946-13.947-13.946"/>
        <path stroke="#02647A" stroke-linecap="round" stroke-linejoin="round" stroke-width=".5" d="M18.383 27.212c-6.157 0-11.147-4.992-11.147-11.148s4.99-11.147 11.147-11.147 11.148 4.99 11.148 11.147c0 6.156-4.99 11.148-11.148 11.148zm0-25.094c-7.703 0-13.947 6.244-13.947 13.946 0 7.703 6.244 13.947 13.947 13.947 7.703 0 13.947-6.244 13.947-13.947 0-7.702-6.244-13.946-13.947-13.946z"/>
        <path stroke="#EF4050" stroke-linecap="round" stroke-linejoin="round" stroke-width=".5" d="M11.747 11.496c.598-.708 1.318-1.31 2.127-1.773M16.039 8.534c.74-.23 1.528-.354 2.344-.354 4.355 0 7.885 3.53 7.885 7.884"/>
        <mask id="gazrj1a7sb" fill="#fff">
            <use xlink:href="#mj8i6abifa"/>
        </mask>
        <path stroke="#00657A" stroke-linecap="round" stroke-linejoin="round" stroke-width=".5" d="M16.792 33.917L19.975 33.917 19.975 30.011 16.792 30.011zM19.062 52.194h-1.358c-1.528 0-2.778-1.25-2.778-2.777V36.695c0-1.528 1.25-2.778 2.778-2.778h1.358c1.528 0 2.778 1.25 2.778 2.778v12.722c0 1.527-1.25 2.777-2.778 2.777z" mask="url(#gazrj1a7sb)"/>
        <path stroke="#00657A" stroke-linecap="round" stroke-linejoin="round" stroke-width=".5" d="M21.84 38.12v-1.425c0-1.528-1.25-2.778-2.778-2.778h-1.358c-1.528 0-2.778 1.25-2.778 2.778v1.48l6.914-.055z" mask="url(#gazrj1a7sb)"/>
        <g mask="url(#gazrj1a7sb)">
            <g>
                <path fill="#A3C8D0" d="M0.275 0.759L0.261 0.269" transform="translate(20.4 36.448)"/>
                <path stroke="#02647A" stroke-linecap="round" stroke-linejoin="round" stroke-width=".5" d="M0.275 0.759L0.261 0.269" transform="translate(20.4 36.448)"/>
            </g>
        </g>
        <g mask="url(#gazrj1a7sb)">
            <g>
                <path fill="#A3C8D0" d="M0.332 0.759L0.319 0.269" transform="translate(19.2 36.448)"/>
                <path stroke="#02647A" stroke-linecap="round" stroke-linejoin="round" stroke-width=".5" d="M0.332 0.759L0.319 0.269" transform="translate(19.2 36.448)"/>
            </g>
        </g>
        <g mask="url(#gazrj1a7sb)">
            <g>
                <path fill="#A3C8D0" d="M0.39 0.759L0.377 0.269" transform="translate(18 36.448)"/>
                <path stroke="#02647A" stroke-linecap="round" stroke-linejoin="round" stroke-width=".5" d="M0.39 0.759L0.377 0.269" transform="translate(18 36.448)"/>
            </g>
        </g>
        <g mask="url(#gazrj1a7sb)">
            <g>
                <path fill="#A3C8D0" d="M0.447 0.759L0.435 0.269" transform="translate(16.8 36.448)"/>
                <path stroke="#02647A" stroke-linecap="round" stroke-linejoin="round" stroke-width=".5" d="M0.447 0.759L0.435 0.269" transform="translate(16.8 36.448)"/>
            </g>
        </g>
        <g mask="url(#gazrj1a7sb)">
            <g>
                <path fill="#A3C8D0" d="M0.505 0.759L0.492 0.269" transform="translate(15.6 36.448)"/>
                <path stroke="#02647A" stroke-linecap="round" stroke-linejoin="round" stroke-width=".5" d="M0.505 0.759L0.492 0.269" transform="translate(15.6 36.448)"/>
            </g>
        </g>
        <path fill="#FFF" d="M3.76 8.639l-2.717-.596c-.108-.023-.215.045-.238.153-.024.107.044.214.152.237l2.716.596c.015.003.03.005.044.005.092 0 .174-.064.195-.157.023-.108-.045-.215-.153-.238" mask="url(#gazrj1a7sb)"/>
        <path stroke="#FFF" stroke-width="1.6" d="M3.76 8.639l-2.717-.596c-.108-.023-.215.045-.238.153-.024.107.044.214.152.237l2.716.596c.015.003.03.005.044.005.092 0 .174-.064.195-.157.023-.108-.045-.215-.153-.238z" mask="url(#gazrj1a7sb)"/>
        <path fill="#FFF" d="M3.01 3.769c-.086-.068-.212-.055-.281.032-.069.086-.054.212.032.28l2.163 1.72c.037.03.081.044.125.044.058 0 .117-.026.156-.075.07-.087.055-.213-.032-.281L3.01 3.769z" mask="url(#gazrj1a7sb)"/>
        <path stroke="#FFF" stroke-width="1.6" d="M3.01 3.769c-.086-.068-.212-.055-.281.032-.069.086-.054.212.032.28l2.163 1.72c.037.03.081.044.125.044.058 0 .117-.026.156-.075.07-.087.055-.213-.032-.281L3.01 3.769z" mask="url(#gazrj1a7sb)"/>
        <path fill="#FFF" d="M8.051 3.42L6.78.91C6.73.81 6.61.772 6.511.82c-.099.05-.138.17-.088.27L7.694 3.6c.035.07.106.11.179.11.03 0 .061-.007.09-.022.099-.05.138-.17.088-.268" mask="url(#gazrj1a7sb)"/>
        <path stroke="#FFF" stroke-width="1.6" d="M8.051 3.42L6.78.91C6.73.81 6.61.772 6.511.82c-.099.05-.138.17-.088.27L7.694 3.6c.035.07.106.11.179.11.03 0 .061-.007.09-.022.099-.05.138-.17.088-.268z" mask="url(#gazrj1a7sb)"/>
        <g mask="url(#gazrj1a7sb)">
            <g>
                <path fill="#FFF" d="M2.913 0.786L0.196 0.191" transform="translate(.8 8.048)"/>
                <path stroke="#02647A" stroke-linecap="round" stroke-linejoin="round" stroke-width=".5" d="M2.913 0.786L0.196 0.191" transform="translate(.8 8.048)"/>
            </g>
        </g>
        <g mask="url(#gazrj1a7sb)">
            <g>
                <path fill="#FFF" d="M2.245 1.998L0.081 0.278" transform="translate(2.8 3.648)"/>
                <path stroke="#02647A" stroke-linecap="round" stroke-linejoin="round" stroke-width=".5" d="M2.245 1.998L0.081 0.278" transform="translate(2.8 3.648)"/>
            </g>
        </g>
        <g mask="url(#gazrj1a7sb)">
            <g>
                <path fill="#FFF" d="M1.469 2.663L0.197 0.152" transform="translate(6.4 .848)"/>
                <path stroke="#02647A" stroke-linecap="round" stroke-linejoin="round" stroke-width=".5" d="M1.469 2.663L0.197 0.152" transform="translate(6.4 .848)"/>
            </g>
        </g>
    </g>
</svg>
