<svg xmlns="http://www.w3.org/2000/svg" width="56" height="45" viewBox="0 0 56 45">
    <g fill="none" fill-rule="evenodd">
        <g>
            <path fill="#A3C8D0" d="M51.51 16.202V6.424C51.51 2.876 48.634 0 45.085 0H8.205C4.655 0 1.78 2.876 1.78 6.424v9.778H3.92V7.227c0-2.823 2.29-5.112 5.113-5.112h34.826c3.045 0 5.513 2.468 5.513 5.512v8.575h2.139z" transform="translate(1 1) translate(.2 .2)"/>
            <path stroke="#02647A" stroke-linecap="round" stroke-linejoin="round" stroke-width=".5" d="M51.51 16.202V6.424C51.51 2.876 48.634 0 45.085 0H8.205C4.655 0 1.78 2.876 1.78 6.424v9.778H3.92V7.227c0-2.823 2.29-5.112 5.113-5.112h34.826c3.045 0 5.513 2.468 5.513 5.512v8.575h2.139z" transform="translate(1 1) translate(.2 .2)"/>
            <path stroke="#00657A" stroke-width=".5" d="M48 17.586H5.29c-2.922 0-5.29 2.368-5.29 5.29v19.792h6.506l.083-5.19c.01-.522.436-.94.959-.94h38.194c.522 0 .95.418.959.94l.083 5.19h6.506V22.876c0-2.922-2.368-5.29-5.29-5.29z" transform="translate(1 1) translate(.2 .2)"/>
            <path fill="#A3C8D0" d="M48.214 36.335h-2.42c.523 0 1.095.548 1.105 1.07l.083 5.06h2.273l-.083-5.189c-.01-.522-.436-.94-.958-.94M7.563 17.787H5.289C2.695 17.776.14 19.954.14 22.876l.065 19.595h2.069V22.876c0-2.922 2.368-5.089 5.29-5.089M44.934 17.586h-14.27v-5.259c0-1.836 1.489-3.324 3.324-3.324h7.622c1.836 0 3.324 1.488 3.324 3.324v5.259z" transform="translate(1 1) translate(.2 .2)"/>
            <path stroke="#02647A" stroke-linecap="round" stroke-linejoin="round" stroke-width=".5" d="M44.934 17.586h-14.27v-5.259c0-1.836 1.489-3.324 3.324-3.324h7.622c1.836 0 3.324 1.488 3.324 3.324v5.259z" transform="translate(1 1) translate(.2 .2)"/>
        </g>
        <g>
            <path fill="#A3C8D0" d="M0.438 0.741L0.425 0.252" transform="translate(1 1) translate(36.8 15.468)"/>
            <path stroke="#02647A" stroke-linecap="round" stroke-linejoin="round" stroke-width=".5" d="M0.438 0.741L0.425 0.252" transform="translate(1 1) translate(36.8 15.468)"/>
        </g>
        <g>
            <path fill="#A3C8D0" d="M0.496 0.741L0.482 0.252" transform="translate(1 1) translate(35.6 15.468)"/>
            <path stroke="#02647A" stroke-linecap="round" stroke-linejoin="round" stroke-width=".5" d="M0.496 0.741L0.482 0.252" transform="translate(1 1) translate(35.6 15.468)"/>
        </g>
        <g>
            <path fill="#A3C8D0" d="M0.553 0.741L0.54 0.252" transform="translate(1 1) translate(34.4 15.468)"/>
            <path stroke="#02647A" stroke-linecap="round" stroke-linejoin="round" stroke-width=".5" d="M0.553 0.741L0.54 0.252" transform="translate(1 1) translate(34.4 15.468)"/>
        </g>
        <g>
            <path fill="#A3C8D0" d="M0.211 0.741L0.198 0.252" transform="translate(1 1) translate(33.6 15.468)"/>
            <path stroke="#02647A" stroke-linecap="round" stroke-linejoin="round" stroke-width=".5" d="M0.211 0.741L0.198 0.252" transform="translate(1 1) translate(33.6 15.468)"/>
        </g>
        <g>
            <path fill="#A3C8D0" d="M0.269 0.741L0.256 0.252" transform="translate(1 1) translate(32.4 15.468)"/>
            <path stroke="#02647A" stroke-linecap="round" stroke-linejoin="round" stroke-width=".5" d="M0.269 0.741L0.256 0.252" transform="translate(1 1) translate(32.4 15.468)"/>
        </g>
        <path fill="#A3C8D0" d="M22.825 17.786H8.555v-5.259c0-1.836 1.489-3.324 3.324-3.324h7.622c1.836 0 3.324 1.488 3.324 3.324v5.259z" transform="translate(1 1)"/>
        <path stroke="#02647A" stroke-linecap="round" stroke-linejoin="round" stroke-width=".5" d="M22.825 17.786H8.555v-5.259c0-1.836 1.489-3.324 3.324-3.324h7.622c1.836 0 3.324 1.488 3.324 3.324v5.259z" transform="translate(1 1)"/>
        <g>
            <path fill="#A3C8D0" d="M0.529 0.741L0.516 0.252" transform="translate(1 1) translate(14.4 15.468)"/>
            <path stroke="#02647A" stroke-linecap="round" stroke-linejoin="round" stroke-width=".5" d="M0.529 0.741L0.516 0.252" transform="translate(1 1) translate(14.4 15.468)"/>
        </g>
        <g>
            <path fill="#A3C8D0" d="M0.587 0.741L0.573 0.252" transform="translate(1 1) translate(13.2 15.468)"/>
            <path stroke="#02647A" stroke-linecap="round" stroke-linejoin="round" stroke-width=".5" d="M0.587 0.741L0.573 0.252" transform="translate(1 1) translate(13.2 15.468)"/>
        </g>
        <g>
            <path fill="#A3C8D0" d="M0.244 0.741L0.231 0.252" transform="translate(1 1) translate(12.4 15.468)"/>
            <path stroke="#02647A" stroke-linecap="round" stroke-linejoin="round" stroke-width=".5" d="M0.244 0.741L0.231 0.252" transform="translate(1 1) translate(12.4 15.468)"/>
        </g>
        <g>
            <path fill="#A3C8D0" d="M0.302 0.741L0.289 0.252" transform="translate(1 1) translate(11.2 15.468)"/>
            <path stroke="#02647A" stroke-linecap="round" stroke-linejoin="round" stroke-width=".5" d="M0.302 0.741L0.289 0.252" transform="translate(1 1) translate(11.2 15.468)"/>
        </g>
        <g>
            <path fill="#A3C8D0" d="M0.359 0.741L0.347 0.252" transform="translate(1 1) translate(10 15.468)"/>
            <path stroke="#02647A" stroke-linecap="round" stroke-linejoin="round" stroke-width=".5" d="M0.359 0.741L0.347 0.252" transform="translate(1 1) translate(10 15.468)"/>
        </g>
        <path stroke="#EF4050" stroke-linecap="round" stroke-linejoin="round" stroke-width=".5" d="M24.138 20.134L26.032 20.134M28.098 20.134L41.63 20.134M43.909 20.134L45.803 20.134" transform="translate(1 1)"/>
        <path stroke="#02647A" stroke-linecap="round" stroke-linejoin="round" stroke-width=".5" d="M48.004 9.002c.373-2.706-1.334-4.943-4.02-5.412M42.118 2.315h1.647s4.96-.379 5.787 5.061v2.02" transform="translate(1 1)"/>
    </g>
</svg>
