<?xml version="1.0" encoding="UTF-8"?>
<svg width="41px" height="41px" viewBox="0 0 41 41" version="1.1" xmlns="http://www.w3.org/2000/svg" xmlns:xlink="http://www.w3.org/1999/xlink">
    <!-- Generator: Sketch 58 (84663) - https://sketch.com -->
    <title>Whatsapp_icon</title>
    <desc>Created with Sketch.</desc>
    <g id="-------Footer-(Desktop-+-Responsive)" stroke="none" stroke-width="1" fill="none" fill-rule="evenodd">
        <g id="Footer---EN---WhatsApp" transform="translate(-1296.000000, -395.000000)" fill-rule="nonzero" stroke="#23A5B9" stroke-width="1.5">
            <g id="Group-7" transform="translate(1297.000000, 393.000000)">
                <g id="Whatsapp_icon" transform="translate(0.000000, 2.000000)">
                    <g>
                        <path d="M33.4547835,6.46318121 C35.277001,8.28539865 36.6863726,10.3496303 37.6828984,12.6558748 C38.6794243,14.9621193 39.1776865,17.3680168 39.1776865,19.8735659 C39.1776865,23.2902244 38.3092854,26.4506336 36.5724844,29.3547933 C34.8356834,32.258953 32.5009659,34.5651975 29.5683345,36.2735268 C26.635703,37.9818561 23.4610573,38.8360207 20.0443988,38.8360207 C16.7985732,38.8360207 13.7805253,38.0672725 10.9902537,36.5297762 L0.911111111,39.1776865 L3.64444444,29.3547933 C1.93610867,26.4506336 1.08194404,23.2902244 1.08194404,19.8735659 C1.08194404,16.4569074 1.93610867,13.2964982 3.64444444,10.3923385 C5.35276719,7.48817876 7.65901169,5.18193426 10.5631714,3.473605 C13.4673312,1.76527574 16.6277403,0.911111111 20.0443988,0.911111111 C22.549948,0.911111111 24.9558455,1.39513817 27.26209,2.36319098 C29.5683345,3.3312438 31.6325661,4.6979072 33.4547835,6.46318121 Z" id=""></path>
                        <path d="M28.6714616,23.8027232 L28.927711,23.9735561 C29.3263216,24.1443891 29.5540979,24.2867503 29.6110427,24.4006384 C29.6679868,24.5145266 29.6822226,24.799249 29.6537509,25.2548031 C29.6252792,25.7103571 29.5113897,26.1801477 29.3120851,26.6641747 C29.1127804,27.1482018 28.6572251,27.6322275 27.9454217,28.1162546 C27.2336182,28.6002816 26.6214665,28.8707662 26.1089677,28.927711 C25.3117478,29.0415992 24.5429996,29.0415992 23.8027232,28.927711 C22.9485586,28.7568781 21.8096728,28.3582675 20.3860647,27.7318805 C17.4819049,26.4791053 14.8339946,24.1443891 12.4423336,20.7277305 L12.2715007,20.5568976 C11.0187255,18.7916236 10.3923385,17.1687108 10.3923385,15.6881592 C10.3923385,14.2076076 10.9048373,12.9263607 11.9298348,11.8444184 L12.0152513,11.7590019 C12.4138619,11.3603913 12.8409442,11.1610867 13.2964982,11.1610867 L14.3214958,11.1610867 C14.5492735,11.1610867 14.7343416,11.2037949 14.8767028,11.2892114 C15.019064,11.3746278 15.1471887,11.588169 15.2610769,11.9298348 L16.7131568,15.4319098 C16.8839897,15.7735757 16.9124614,16.0582968 16.7985732,16.2860745 C16.5138521,16.855518 16.1437132,17.3680168 15.6881592,17.8235708 C15.4603815,18.0513485 15.3180216,18.2364166 15.2610769,18.3787778 C15.2041322,18.521139 15.2610769,18.6777354 15.4319098,18.8485683 C16.2291297,20.3291199 17.1687108,21.4964787 18.2506531,22.3506433 C19.047873,22.9770303 20.2437035,23.688835 21.8381446,24.4860549 C22.2936986,24.7138326 22.6353644,24.6853595 22.8631421,24.4006384 C23.6034186,23.5464738 24.1159173,22.9200868 24.4006384,22.5214763 C24.5145266,22.2936986 24.6568878,22.1798104 24.8277208,22.1798104 C24.9985537,22.1798104 25.1978583,22.2082821 25.425636,22.2652269 C25.88119,22.4360598 26.9631323,22.9485586 28.6714616,23.8027232 Z" id="Path"></path>
                    </g>
                </g>
            </g>
        </g>
    </g>
</svg>